<svg xmlns="http://www.w3.org/2000/svg" viewBox="0 0 24 24">
    <path xmlns="http://www.w3.org/2000/svg" fill-rule="evenodd" d="M4 2.5a4 4 0 0 0-4 4v11a4 4 0 0 0 4 4h16a4 4 0 0 0 4-4v-11a4 4 0 0 0-4-4H4zM5.5 17a1 1 0 0 1 1-1h11a1 1 0 1 1 0 2h-11a1 1 0 0 1-1-1zM3.529 6C3.237 6 3 6.224 3 6.5V8c0 .276.237.5.529.5h1.441c.292 0 .529-.224.529-.5V6.5c0-.276-.237-.5-.529-.5H3.529zm15.5 0c-.292 0-.529.224-.529.5V8c0 .276.237.5.529.5h1.441c.292 0 .529-.224.529-.5V6.5c0-.276-.237-.5-.529-.5h-1.441zM3 11.5c0-.276.237-.5.529-.5h1.441c.292 0 .529.224.529.5V13c0 .276-.237.5-.529.5H3.529C3.237 13.5 3 13.276 3 13v-1.5zM8.618 6c-.292 0-.529.224-.529.5V8c0 .276.237.5.529.5h1.353c.292 0 .529-.224.529-.5V6.5c0-.276-.237-.5-.529-.5H8.618zm-.529 5.5c0-.276.237-.5.529-.5h1.353c.292 0 .529.224.529.5V13c0 .276-.237.5-.529.5H8.618c-.292 0-.529-.224-.529-.5v-1.5zM14 6c-.292 0-.529.224-.529.5V8c0 .276.237.5.529.5h1.382c.292 0 .529-.224.529-.5V6.5c0-.276-.237-.5-.529-.5H14zm-.529 5.5c0-.276.237-.5.529-.5h1.382c.292 0 .529.224.529.5V13c0 .276-.237.5-.529.5H14c-.292 0-.529-.224-.529-.5v-1.5zm5.559-.5c-.292 0-.529.224-.529.5V13c0 .276.237.5.529.5h1.441c.292 0 .529-.224.529-.5v-1.5c0-.276-.237-.5-.529-.5h-1.441z" fill="currentColor"/>
</svg>